Coordinates
version=1
nRows=19
nColumns=36
inDegrees=yes

Units are S.I. units (second, meters, Newtons, ...)
If the header above contains a line with 'inDegrees', this indicates whether rotational values are in degrees (yes) or radians (no).

endheader
time	pelvis_tilt	pelvis_list	pelvis_rotation	pelvis_tx	pelvis_ty	pelvis_tz	hip_flexion_r	hip_adduction_r	hip_rotation_r	knee_angle_r	knee_angle_r_beta	ankle_angle_r	subtalar_angle_r	mtp_angle_r	hip_flexion_l	hip_adduction_l	hip_rotation_l	knee_angle_l	knee_angle_l_beta	ankle_angle_l	subtalar_angle_l	mtp_angle_l	lumbar_extension	lumbar_bending	lumbar_rotation	arm_flex_r	arm_add_r	arm_rot_r	elbow_flex_r	pro_sup_r	arm_flex_l	arm_add_l	arm_rot_l	elbow_flex_l	pro_sup_l
      4.76666670	     -6.44666861	      2.11872489	      6.59377517	     -0.35517929	      1.35211802	     -0.03890732	      2.37986182	     -0.76514782	     -2.03198611	      0.28011208	      0.00488888	     13.68186360	     -0.07216527	     -7.49999987	      3.54918536	      1.62324143	      4.17407720	      0.91842552	      0.01602955	      6.77450678	     -4.18395097	     -7.49999987	      1.88658114	     -2.46835902	      1.27758834	    -18.09860229	    -16.70094752	     17.35367872	     67.92734304	     86.10269998	    -26.47745022	    -16.30567729	     13.72549695	     76.59246806	     94.39214801
      4.78333330	     -6.42847381	      2.11124423	      6.79347573	     -0.35516551	      1.35229586	     -0.03932549	      2.33280833	     -0.77374581	     -2.13714470	      0.28160032	      0.00491485	     13.87538128	      0.27241839	     -7.49999987	      3.50557653	      1.62071795	      4.41603266	      0.85963621	      0.01500348	      6.74099065	     -4.06962440	     -7.49999987	      1.88595983	     -2.42589188	      1.11430407	    -18.01061955	    -16.85850793	     17.24321165	     67.88680413	     89.15693246	    -26.42877036	    -16.36131427	     13.48687656	     76.56028036	     98.29983995
      4.80000000	     -6.43561586	      2.11342841	      6.85615000	     -0.35533919	      1.35197612	     -0.03929216	      2.34904770	     -0.76642594	     -1.79449616	      0.28401192	      0.00495694	     14.00903496	      0.15540383	     -7.49999987	      3.55315929	      1.60894005	      4.55736977	      0.81206587	      0.01417322	      6.72803434	     -3.92840600	     -7.49999987	      1.88898936	     -2.41716893	      1.13699378	    -17.97953353	    -16.88118328	     17.47223181	     68.04542294	     88.29106274	    -26.30936221	    -16.50373971	     13.69509448	     76.82471894	     97.10243280
      4.81666670	     -6.20943063	      2.04337782	      6.93987947	     -0.35529729	      1.35297622	     -0.03941013	      1.98861213	     -0.71508107	     -1.85453977	      0.29416522	      0.00513415	     13.90422827	     -0.14470206	     -7.49999987	      3.30803316	      1.50152120	      4.38863253	      0.78613358	      0.01372062	      6.71175038	     -3.68650180	     -7.49999987	      1.68886332	     -2.31835596	      1.19585940	    -17.86954288	    -17.08093473	     17.86113570	     68.15622694	     86.68829819	    -26.14904774	    -16.56322056	     14.26825678	     76.52586961	     94.79909659
      4.83333330	     -6.29026958	      1.96103932	      6.94594782	     -0.35522786	      1.35317003	     -0.03940706	      2.08612601	     -0.62831328	     -1.89111230	      0.29643290	      0.00517373	     13.89171758	     -0.03320079	     -7.49999987	      3.36554274	      1.45079544	      4.43039601	      0.70732943	      0.01234523	      6.62267771	     -3.92370875	     -7.49999987	      1.74983000	     -2.26874645	      1.09424609	    -17.89334552	    -17.23532634	     18.14193355	     68.49268566	     86.09710572	    -25.94870942	    -16.84290191	     14.71171754	     76.53432768	     94.07817033
      4.85000000	     -6.22025053	      1.93449215	      7.04249913	     -0.35527427	      1.35332155	     -0.03960628	      1.99770708	     -0.61993336	     -1.77738286	      0.29602460	      0.00516660	     14.01883514	      0.04825202	     -7.49999987	      3.29971682	      1.43801168	      4.56308547	      0.71384995	      0.01245903	      6.58255930	     -4.11187878	     -7.49999987	      1.68931375	     -2.27626246	      1.07712239	    -17.96516597	    -17.45622355	     18.21888153	     69.06852166	     86.14001603	    -25.85096086	    -16.93504997	     14.85532740	     76.78071803	     94.09505500
      4.86666670	     -6.09653906	      1.87921729	      6.89976882	     -0.35555711	      1.35352862	     -0.03962623	      1.76738051	     -0.60374175	     -1.97582939	      0.31659953	      0.00552570	     13.93834512	     -0.04410460	     -7.49999987	      3.13895497	      1.36223372	      4.31122221	      0.64923032	      0.01133121	      6.65119521	     -3.82211864	     -7.49999987	      1.50460675	     -2.20519775	      1.06404388	    -18.22668334	    -17.63561313	     17.66894269	     69.91776611	     90.08693395	    -25.91265037	    -16.72429554	     14.32069977	     76.88495921	     98.74443472
      4.88333330	     -6.31495133	      1.84617746	      6.80752909	     -0.36229070	      1.35348163	     -0.04215469	      2.09663297	     -0.61841930	     -1.95765869	      0.33206980	      0.00579571	     13.85436188	     -0.12375316	     -7.49999987	      3.44774395	      1.42784150	      4.32054937	      0.58200959	      0.01015798	      6.49009320	     -4.04996668	     -7.49999987	      1.61925770	     -2.22595161	      0.95895213	    -18.14060214	    -18.03182067	     17.85155950	     70.56087203	     90.14962152	    -25.98215660	    -16.57730710	     14.46231671	     76.97197122	     98.73695694
      4.90000000	     -6.31634901	      1.86445638	      6.75133501	     -0.35539564	      1.35620258	     -0.03942899	      2.14245788	     -0.63010857	     -1.80353796	      0.32587471	      0.00568759	     13.78116617	     -0.02715687	     -7.49999987	      3.44201624	      1.42677184	      4.29604376	      0.56676162	      0.00989186	      6.30163154	     -4.01818398	     -7.49999987	      1.58148803	     -2.36030585	      0.79177892	    -18.29730766	    -18.08010801	     17.86432697	     70.57987085	     90.15518467	    -26.00514763	    -16.54697973	     14.45317029	     76.93453272	     98.73124028
      4.91666670	     -6.49888103	      1.82712776	      6.60463153	     -0.36203376	      1.35315477	     -0.04205875	      2.45929988	     -0.66022787	     -1.60449852	      0.34620547	      0.00604243	     13.70908884	     -0.08926120	     -7.49999987	      3.69798760	      1.47326797	      4.18093072	      0.51905344	      0.00905919	      6.17735265	     -4.26327118	     -7.49999987	      1.65616605	     -2.31307931	      0.48886918	    -18.50057478	    -18.78920618	     18.10803236	     71.62599435	     90.22789544	    -26.27596945	    -16.13444583	     13.78468624	     77.11712029	     98.32876032
      4.93333330	     -6.63588235	      1.86060191	      6.53376659	     -0.36211072	      1.35300343	     -0.04185996	      2.77097016	     -0.71943331	     -1.37838973	      0.35242293	      0.00615094	     13.70304149	     -0.10406156	     -7.49999987	      3.91382709	      1.54869006	      4.30659136	      0.49510300	      0.00864118	      6.01304142	     -4.59836960	     -7.49999987	      1.60033910	     -2.42830171	      0.35637457	    -18.67254301	    -19.19353086	     18.12530717	     72.36063006	     90.30941796	    -26.29801958	    -15.94434718	     13.55710908	     77.33060234	     98.34489125
      4.95000000	     -6.82849696	      1.83660834	      6.41493983	     -0.36188803	      1.35298706	     -0.04176880	      3.07657519	     -0.75342663	     -1.25599165	      0.36837959	      0.00642944	     13.65791837	      0.01267559	     -7.49999987	      4.17937648	      1.55724120	      4.28207744	      0.47034360	      0.00820904	      6.01006216	     -4.51230193	     -7.49999987	      1.61557654	     -2.43057991	      0.28540052	    -19.05781175	    -19.71173781	     18.11002300	     73.40201946	     90.35296822	    -26.42992106	    -15.74378354	     13.30319695	     77.56248795	     98.30331991
      4.96666670	     -6.95547510	      1.80516532	      6.33371285	     -0.36196751	      1.35268756	     -0.04159097	      3.30646457	     -0.79292708	     -1.27018056	      0.38290233	      0.00668291	     13.54979876	     -0.02757623	     -7.49999987	      4.38556991	      1.56555018	      4.27830843	      0.44224896	      0.00771870	      6.04681838	     -4.54921148	     -7.49999987	      1.58310361	     -2.44102680	      0.14539533	    -19.55224634	    -20.25518564	     18.02557544	     74.72210389	     90.39876803	    -26.63045596	    -15.57779646	     12.99979747	     77.90490669	     98.24145775
      4.98333330	     -6.96751954	      1.76183258	      6.22697783	     -0.35512407	      1.35513962	     -0.03897274	      3.28962319	     -0.76865943	     -1.33016190	      0.40289404	      0.00703183	     13.47919437	     -0.03987001	     -7.49999987	      4.35291639	      1.46908467	      4.16737868	      0.43253482	      0.00754916	      6.06427863	     -4.60848774	     -7.49999987	      1.57720790	     -2.57789229	     -0.00937059	    -19.69926905	    -20.35387801	     17.98922861	     74.78031950	     90.40062681	    -26.59407911	    -15.66020707	     12.92354568	     77.89330388	     98.23130701
      5.00000000	     -7.00489184	      1.70704201	      6.09259487	     -0.36235668	      1.34901026	     -0.04142775	      3.39176834	     -0.71914126	     -0.96786090	      0.38522906	      0.00672352	     13.33861208	     -0.33081895	     -7.49999987	      4.38356338	      1.43043611	      4.04810369	      0.44282378	      0.00772873	      6.32937490	     -4.51467662	     -7.49999987	      1.41242712	     -2.46591454	     -0.00926733	    -20.37767944	    -21.12881385	     17.85490572	     76.92549059	     87.30200129	    -26.83262550	    -15.62992739	     12.82378860	     78.29729646	     94.27641829
      5.01666670	     -7.02474692	      1.63197380	      6.07143499	     -0.36206603	      1.34894930	     -0.04165728	      3.47186182	     -0.65089296	     -1.00062362	      0.38893929	      0.00678827	     13.57868816	      0.08049652	     -7.49999987	      4.42298847	      1.36065970	      4.25858117	      0.49423635	      0.00862605	      6.32832877	     -4.80286901	     -7.49999987	      1.28387654	     -2.36860756	      0.00022945	    -21.24535825	    -21.44870050	     16.72786332	     78.33814652	     90.49077171	    -27.23906558	    -15.30937137	     12.07779502	     78.83119641	     97.64119332
      5.03333330	     -7.13829352	      1.57343700	      6.07096421	     -0.36191478	      1.34919568	     -0.04162529	      3.65372598	     -0.59007453	     -0.83204778	      0.39470877	      0.00688897	     13.56034729	      0.11885682	     -7.49999987	      4.61322876	      1.33392156	      4.32038246	      0.53716301	      0.00937526	      6.45101011	     -4.89385801	     -7.49999987	      1.27811209	     -2.32962588	      0.25128170	    -22.01342298	    -21.73516429	     16.05554354	     79.30289541	     91.33790094	    -27.45683511	    -15.32868388	     12.41284009	     79.03594984	     96.84654220
      5.05000000	     -7.20435959	      1.56687996	      6.14234336	     -0.36160363	      1.34945288	     -0.04182055	      3.76532052	     -0.58866424	     -0.73339308	      0.39100997	      0.00682441	     13.60436357	      0.16732971	     -7.49999987	      4.75932817	      1.35167859	      4.53311338	      0.58237062	      0.01016428	      6.58394892	     -4.83684076	     -7.49999987	      1.20995214	     -2.35990549	      0.19775342	    -22.40494727	    -22.04768538	     15.95821280	     79.66520537	     91.35235634	    -27.82911354	    -15.17714420	     12.43349415	     79.12090671	     96.82739222
      5.06666670	     -7.17753244	      1.50160467	      6.21526808	     -0.36133839	      1.35321427	     -0.04192467	      3.67733648	     -0.56329089	     -0.96126840	      0.41162117	      0.00718414	     13.51358415	      0.25862840	     -7.49999987	      4.85506239	      1.29461096	      4.61181799	      0.65319021	      0.01140032	      6.46114728	     -4.92204230	     -7.49999987	      0.97155490	     -2.20522338	      0.34365487	    -23.47948022	    -22.08897610	     14.89996888	     80.76398270	     90.73668116	    -27.78192507	    -14.98678650	     12.18533721	     79.21617294	     95.38064777
